<?xml version="1.0" standalone="no"?>
<!DOCTYPE svg PUBLIC "-//W3C//DTD SVG 20010904//EN"
 "http://www.w3.org/TR/2001/REC-SVG-20010904/DTD/svg10.dtd">
<svg version="1.0" xmlns="http://www.w3.org/2000/svg"
 width="335.000000pt" height="381.000000pt" viewBox="0 0 335.000000 381.000000"
 preserveAspectRatio="xMidYMid meet">
<metadata>
Created by potrace 1.16, written by Peter Selinger 2001-2019
</metadata>
<g transform="translate(0.000000,381.000000) scale(0.100000,-0.100000)"
fill="#000000" stroke="none">
<path d="M1810 3583 c-47 -2 -94 -7 -105 -12 -11 -5 -54 -12 -95 -15 -41 -4
-77 -10 -80 -15 -3 -5 -29 -12 -57 -16 -29 -4 -53 -11 -53 -16 0 -5 -8 -9 -18
-9 -10 0 -27 -7 -38 -15 -10 -8 -27 -15 -36 -15 -10 0 -18 -4 -18 -10 0 -5 -8
-10 -19 -10 -10 0 -29 -8 -42 -18 -13 -10 -41 -26 -61 -36 -21 -9 -38 -21 -38
-26 0 -6 -7 -10 -15 -10 -8 0 -15 -4 -15 -10 0 -5 -6 -10 -13 -10 -7 0 -39
-25 -71 -55 -32 -30 -62 -55 -67 -55 -5 0 -17 -12 -26 -27 -10 -15 -35 -45
-55 -65 -21 -21 -38 -42 -38 -48 0 -5 -10 -20 -22 -34 -37 -39 -45 -51 -52
-74 -4 -12 -11 -22 -16 -22 -4 0 -11 -12 -14 -26 -4 -14 -16 -35 -26 -47 -11
-11 -23 -35 -26 -54 -3 -18 -10 -33 -15 -33 -4 0 -11 -20 -15 -45 -3 -25 -10
-45 -15 -45 -5 0 -9 -8 -9 -17 0 -10 -7 -36 -15 -58 -8 -22 -14 -59 -15 -82 0
-23 -4 -45 -10 -48 -6 -4 -10 -73 -10 -176 0 -106 4 -169 10 -169 6 0 10 -19
10 -42 0 -24 5 -61 11 -83 6 -22 13 -52 16 -67 3 -16 10 -28 17 -28 6 0 4 -5
-4 -10 -10 -7 -12 -12 -4 -17 14 -11 41 -66 49 -103 4 -16 11 -30 16 -30 5 0
9 -7 9 -15 0 -8 4 -15 9 -15 5 0 12 -13 16 -29 3 -16 13 -35 21 -42 8 -6 14
-18 14 -25 0 -8 5 -14 10 -14 6 0 10 -7 10 -15 0 -8 11 -25 25 -39 14 -14 25
-29 25 -33 0 -4 21 -27 45 -51 25 -24 45 -49 45 -55 1 -11 47 -52 134 -119 16
-13 37 -30 47 -40 9 -9 26 -19 38 -23 12 -3 21 -10 21 -15 0 -4 12 -11 27 -15
15 -3 30 -10 33 -14 4 -6 75 -41 175 -86 64 -29 170 -56 246 -62 44 -3 82 -10
85 -15 7 -11 181 -11 188 1 3 4 48 11 101 15 53 3 104 10 113 15 28 14 118 41
136 41 9 0 16 4 16 9 0 6 20 13 45 17 25 3 45 9 45 13 0 3 17 15 38 26 20 11
43 26 50 32 7 7 20 13 28 13 8 0 14 5 14 10 0 6 6 10 13 10 13 0 48 25 95 68
14 12 28 22 31 22 4 0 24 16 44 35 20 19 42 35 47 35 6 0 10 4 10 8 0 5 12 22
26 38 14 16 32 39 41 52 8 12 21 22 28 22 8 0 17 10 21 22 7 22 53 98 65 108
3 3 10 16 14 30 4 14 11 27 14 30 10 7 41 76 41 89 0 6 4 11 9 11 5 0 12 13
16 30 4 16 10 30 15 30 5 0 12 29 15 65 4 36 11 65 15 65 8 0 11 14 30 135 13
80 5 364 -10 379 -6 6 -10 25 -10 42 0 18 -4 35 -9 38 -5 3 -12 31 -16 61 -3
30 -10 55 -15 55 -4 0 -11 18 -15 40 -4 22 -11 42 -16 46 -5 3 -9 14 -9 24 0
10 -6 25 -12 32 -19 20 -38 50 -44 71 -4 9 -10 17 -15 17 -5 0 -9 5 -9 12 0
16 -59 106 -100 152 -97 108 -213 216 -233 216 -8 0 -17 7 -21 15 -3 8 -12 15
-21 15 -8 0 -15 4 -15 9 0 5 -8 11 -17 15 -19 6 -55 27 -63 37 -3 4 -15 9 -27
13 -13 4 -23 12 -23 17 0 5 -8 9 -19 9 -10 0 -32 7 -47 15 -16 8 -36 15 -46
15 -9 0 -18 4 -20 10 -1 5 -25 13 -53 16 -27 4 -53 11 -56 16 -3 5 -42 12 -85
15 -43 3 -81 9 -84 13 -7 10 -94 16 -190 13z m303 -134 c37 -7 67 -17 67 -21
0 -4 20 -10 45 -14 25 -3 45 -10 45 -14 0 -4 18 -10 40 -14 22 -3 40 -10 40
-15 0 -5 16 -16 35 -25 19 -9 37 -20 39 -25 3 -5 18 -12 33 -16 15 -3 30 -10
33 -14 3 -3 25 -22 50 -41 25 -19 51 -39 58 -45 57 -44 192 -195 192 -214 0
-6 3 -11 8 -11 10 0 42 -58 42 -76 0 -8 4 -14 9 -14 5 0 13 -10 17 -22 3 -12
13 -28 20 -36 8 -7 14 -20 14 -28 0 -8 4 -14 9 -14 5 0 13 -15 16 -32 4 -18
11 -37 15 -43 7 -10 25 -77 37 -140 3 -16 10 -33 15 -36 5 -3 12 -83 15 -178
6 -157 5 -171 -10 -165 -10 3 -17 10 -17 15 0 5 -7 9 -15 9 -8 0 -15 4 -15 8
0 5 -25 19 -55 33 l-55 24 0 88 c0 48 -4 95 -10 105 -5 9 -12 43 -15 74 -4 32
-11 60 -16 63 -5 4 -9 15 -9 26 0 10 -4 19 -9 19 -5 0 -11 18 -15 40 -3 22
-11 40 -16 40 -6 0 -10 6 -10 13 0 16 -48 108 -69 129 -27 29 -41 47 -41 54 0
8 -148 154 -156 154 -3 0 -19 13 -37 30 -18 16 -35 30 -40 30 -4 0 -25 11 -47
25 -22 14 -46 25 -55 25 -8 0 -15 5 -15 10 0 6 -6 10 -12 10 -7 0 -26 7 -43
16 -16 8 -48 18 -72 21 -24 3 -43 10 -43 14 0 5 -13 9 -28 9 -15 0 -34 6 -40
12 -17 17 -347 17 -364 0 -7 -7 -25 -12 -40 -12 -15 0 -28 -4 -28 -9 0 -4 -23
-11 -52 -14 -28 -4 -55 -12 -60 -19 -6 -10 -8 -10 -8 0 0 6 -6 12 -14 12 -8 0
-16 7 -20 15 -3 8 -16 15 -28 15 -13 0 -32 7 -42 15 -25 19 -70 19 -90 0 -8
-8 -18 -15 -22 -15 -7 0 -217 -211 -240 -241 -6 -8 -19 -28 -30 -44 -10 -17
-24 -36 -31 -43 -7 -7 -13 -27 -13 -43 0 -16 -4 -29 -10 -29 -6 0 -10 -27 -10
-60 0 -47 -3 -60 -15 -60 -24 0 -63 -40 -70 -71 -4 -16 -11 -29 -16 -29 -5 0
-9 -20 -9 -45 0 -25 5 -45 10 -45 6 0 10 -7 10 -15 0 -8 -4 -15 -10 -15 -5 0
-10 -11 -10 -24 0 -14 -4 -28 -10 -31 -5 -3 -10 -14 -10 -23 0 -9 -7 -30 -15
-45 -8 -16 -18 -52 -21 -80 -4 -29 -11 -55 -17 -59 -14 -9 -15 -267 -1 -276 6
-4 14 -25 18 -47 7 -37 6 -39 -8 -20 -8 11 -16 30 -16 42 0 12 -4 24 -9 28 -6
3 -13 37 -17 75 -3 39 -11 70 -15 70 -12 0 -12 327 0 334 4 3 11 35 15 71 4
37 11 74 16 83 17 33 40 103 40 122 0 11 5 20 10 20 6 0 10 5 10 10 0 16 100
190 121 211 11 11 19 23 19 27 0 5 11 15 25 22 14 7 25 19 25 26 0 14 137 154
151 154 8 0 42 26 73 56 6 6 22 13 36 17 14 4 37 18 52 32 15 14 31 25 36 25
6 0 23 7 38 15 16 8 41 15 57 15 15 0 27 5 27 10 0 6 5 10 11 10 6 0 25 6 42
14 118 51 411 64 600 25z m-50 -268 c6 -6 21 -11 33 -11 12 0 35 -7 50 -15 16
-8 37 -15 47 -15 9 0 17 -4 17 -9 0 -5 14 -12 30 -16 17 -4 30 -10 30 -15 0
-4 11 -11 25 -14 14 -4 25 -11 25 -16 0 -6 5 -10 11 -10 6 0 20 -11 31 -25 11
-14 25 -25 32 -25 15 0 146 -126 146 -140 0 -5 10 -20 23 -33 27 -29 36 -44
81 -133 20 -39 36 -78 36 -87 0 -9 4 -17 9 -17 5 0 13 -26 17 -57 4 -32 10
-60 14 -63 4 -3 10 -44 13 -92 5 -67 3 -88 -6 -88 -7 0 -17 4 -22 9 -6 6 -30
11 -54 13 -39 3 -46 7 -62 38 -10 19 -22 40 -26 46 -4 5 -16 26 -26 45 -38 70
-52 94 -58 99 -4 3 -9 15 -13 28 -4 12 -11 22 -16 22 -5 0 -11 14 -15 30 -4
17 -10 30 -13 30 -4 0 -13 15 -21 33 -7 17 -19 37 -25 42 -6 6 -26 40 -44 78
-18 37 -37 67 -43 67 -5 0 -9 6 -9 14 0 8 -6 21 -14 28 -7 8 -17 25 -21 38 -4
13 -19 35 -33 49 -24 24 -34 26 -104 26 -46 0 -82 -5 -86 -11 -4 -6 -36 -17
-71 -25 -36 -8 -70 -20 -77 -27 -7 -7 -52 -15 -103 -19 -79 -5 -91 -4 -97 11
-3 9 -11 16 -18 16 -19 0 -85 67 -92 94 -3 14 -10 26 -15 26 -5 0 -9 9 -9 19
0 20 49 51 80 51 9 0 20 4 26 9 15 16 71 19 243 16 101 -2 167 -7 174 -14z
m-770 -95 c6 -64 21 -92 78 -157 14 -16 31 -29 37 -29 5 0 12 -7 16 -15 3 -8
12 -15 19 -15 8 0 29 -7 47 -16 27 -14 57 -16 187 -12 97 3 158 9 165 16 7 7
29 12 49 12 21 0 39 5 41 10 2 6 17 12 33 13 26 2 30 -2 33 -25 2 -16 7 -28
12 -28 5 0 11 -14 15 -31 4 -17 13 -42 21 -57 8 -15 14 -33 14 -39 0 -7 5 -13
10 -13 6 0 10 -11 10 -25 0 -23 -4 -25 -43 -25 -24 0 -48 -5 -55 -12 -9 -9
-12 -9 -12 0 0 7 -7 12 -15 12 -9 0 -18 7 -21 15 -4 8 -14 15 -23 15 -9 0 -36
14 -61 30 -25 16 -55 30 -67 30 -13 0 -23 5 -23 10 0 6 -9 10 -20 10 -11 0
-20 -4 -20 -10 0 -5 -11 -10 -24 -10 -26 0 -35 -8 -75 -59 -18 -24 -31 -31
-57 -31 -19 0 -34 -4 -34 -10 0 -5 -24 -10 -54 -10 -35 0 -58 -5 -66 -15 -7
-8 -17 -15 -22 -15 -5 0 -16 -6 -23 -14 -15 -14 -65 -10 -65 5 0 5 -7 9 -15 9
-8 0 -15 4 -15 10 0 5 -11 12 -25 16 -14 3 -25 10 -25 14 0 5 -13 11 -30 15
-16 4 -30 10 -30 14 0 4 -18 16 -40 27 -22 10 -40 22 -40 27 0 4 -7 7 -15 7
-11 0 -15 12 -15 49 0 28 5 53 10 56 6 3 10 18 10 32 0 23 28 79 55 110 41 48
151 162 156 162 3 1 9 -23 12 -53z m846 -155 c10 -10 24 -34 30 -54 7 -19 21
-43 31 -52 11 -10 20 -24 20 -32 0 -7 5 -13 10 -13 6 0 10 -5 10 -10 0 -12 89
-173 100 -180 4 -3 11 -20 15 -39 4 -19 18 -46 31 -60 13 -14 24 -31 24 -38 0
-7 4 -13 9 -13 5 0 12 -12 16 -27 3 -16 14 -36 22 -45 28 -32 -9 -21 -44 12
-18 17 -39 30 -47 30 -18 0 -66 49 -66 67 0 7 -4 13 -10 13 -5 0 -10 6 -10 14
0 8 -6 21 -14 28 -7 8 -17 25 -21 38 -4 14 -10 27 -14 30 -11 9 -41 71 -41 86
0 8 -4 14 -9 14 -5 0 -12 16 -15 35 -4 19 -10 35 -14 35 -4 0 -13 20 -20 44
-6 24 -18 51 -27 59 -18 19 -19 43 -2 62 15 18 14 18 36 -4z m-1129 -290 c0
-5 14 -12 30 -16 17 -4 30 -10 30 -14 0 -4 18 -16 40 -27 22 -10 40 -22 40
-26 0 -3 14 -9 30 -13 17 -4 30 -11 30 -16 0 -5 11 -11 25 -15 14 -3 25 -10
25 -15 0 -5 7 -9 15 -9 8 0 15 -4 15 -9 0 -5 11 -12 25 -15 14 -4 25 -11 25
-16 0 -12 -77 -13 -84 -1 -3 5 -20 12 -38 15 -22 4 -52 26 -87 61 -49 50 -58
55 -97 55 -23 0 -46 5 -49 10 -3 6 -15 10 -26 10 -14 0 -19 7 -19 25 0 22 4
25 35 25 19 0 35 -4 35 -9z m750 -1 c0 -5 6 -10 14 -10 8 0 21 -6 28 -14 8 -7
23 -16 33 -20 11 -3 33 -17 49 -31 16 -14 37 -25 48 -25 10 0 18 -4 18 -9 0
-5 10 -13 23 -17 12 -4 24 -9 27 -13 8 -10 44 -31 63 -37 9 -4 17 -10 17 -15
0 -5 6 -9 14 -9 8 0 38 -18 67 -40 29 -21 65 -42 81 -45 15 -4 28 -10 28 -15
0 -4 11 -11 25 -14 14 -4 25 -11 25 -16 0 -6 6 -10 13 -10 6 0 22 -11 33 -23
21 -22 21 -23 4 -44 -15 -19 -20 -20 -43 -8 -14 7 -39 16 -56 20 -17 4 -31 10
-31 15 0 4 -16 11 -35 14 -19 4 -35 11 -35 16 0 6 -7 10 -15 10 -8 0 -15 3
-15 8 0 4 -25 18 -55 32 -30 14 -55 28 -55 31 0 4 -22 21 -50 39 -27 18 -50
36 -50 41 0 5 -8 9 -19 9 -10 0 -29 10 -43 23 -35 31 -59 49 -88 68 -34 23
-70 55 -70 63 0 12 25 35 38 36 6 0 12 -4 12 -10z m-107 -120 c7 0 26 -14 42
-31 17 -17 42 -38 58 -47 15 -9 27 -20 27 -24 0 -4 7 -8 15 -8 8 0 15 -7 15
-15 0 -8 5 -15 10 -15 19 0 10 -19 -12 -26 -22 -7 -34 -17 -150 -127 -32 -30
-70 -58 -85 -62 -15 -3 -30 -10 -33 -15 -3 -5 -30 -11 -60 -13 -30 -3 -56 -10
-58 -16 -2 -6 -12 -11 -23 -11 -10 0 -19 -4 -19 -10 0 -5 -5 -10 -12 -10 -14
0 -73 -62 -108 -113 l-25 -37 -172 1 c-124 1 -173 4 -173 12 0 7 -8 26 -18 42
-14 25 -17 53 -16 158 0 77 5 131 11 135 5 4 13 25 17 47 5 22 10 43 12 47 6
10 44 -24 44 -39 0 -7 11 -15 25 -19 14 -3 25 -9 25 -14 0 -4 19 -15 43 -25
23 -9 50 -21 59 -26 24 -12 148 -11 148 1 0 6 10 10 23 10 12 0 42 11 67 25
25 13 53 27 63 31 9 3 17 10 17 15 0 5 7 9 16 9 9 0 34 18 55 40 22 22 42 40
46 41 5 0 31 24 58 52 28 29 52 49 53 45 2 -5 9 -8 15 -8z m367 -261 c3 -3 16
-10 30 -14 13 -4 30 -14 38 -21 7 -8 20 -14 28 -14 8 0 14 -3 14 -8 0 -8 43
-28 83 -38 15 -3 27 -10 27 -14 0 -5 14 -11 30 -15 30 -7 38 -19 21 -30 -15
-8 -40 -63 -47 -101 -3 -19 -10 -34 -15 -34 -5 0 -9 -7 -9 -15 0 -14 -50 -15
-425 -15 -318 1 -425 4 -425 13 0 31 106 87 193 102 57 9 118 48 196 123 92
88 135 122 155 122 9 0 16 5 16 10 0 9 77 -35 90 -51z m738 -59 c2 -5 12 -10
22 -10 10 0 35 -10 55 -21 20 -12 38 -19 41 -16 4 3 17 -6 30 -20 44 -47 25
-107 -37 -120 -15 -3 -30 -11 -33 -18 -2 -7 -22 -16 -43 -20 -21 -4 -44 -12
-52 -18 -9 -8 -80 -13 -213 -15 -190 -2 -198 -1 -198 17 0 11 4 22 9 25 5 3
12 17 15 32 4 14 17 35 29 47 12 12 31 39 42 60 11 20 22 37 25 37 3 0 17 11
31 23 13 13 31 27 39 30 23 10 234 -1 238 -13z m172 -299 c0 -14 -46 -58 -68
-66 -12 -3 -22 -11 -22 -16 0 -5 -7 -9 -15 -9 -8 0 -15 -4 -15 -9 0 -5 -25
-13 -55 -16 -30 -4 -55 -11 -55 -16 0 -14 -277 -11 -303 2 -16 9 -22 9 -25 0
-6 -17 -439 -16 -445 2 -3 10 -9 10 -26 0 -26 -16 -441 -19 -441 -3 0 6 -9 10
-20 10 -11 0 -20 -4 -20 -10 0 -14 -427 -14 -436 1 -4 8 -9 8 -17 0 -18 -18
-94 -14 -101 5 -11 28 -6 52 10 58 9 3 416 6 905 6 543 0 896 4 907 10 9 5 43
12 75 15 31 4 57 10 57 15 0 4 17 8 37 8 21 0 39 5 41 11 4 13 32 15 32 2z
m-110 -214 c0 -14 -25 -48 -77 -106 -18 -20 -33 -39 -33 -43 0 -13 -49 -56
-80 -69 -17 -8 -33 -23 -36 -34 -3 -11 -41 -42 -85 -70 -43 -27 -79 -53 -79
-57 0 -5 -14 -8 -30 -8 -17 0 -33 -6 -36 -14 -3 -8 -19 -18 -35 -21 -16 -4
-29 -11 -29 -16 0 -5 -9 -9 -19 -9 -11 0 -22 -4 -26 -9 -3 -6 -26 -13 -50 -17
-25 -3 -45 -10 -45 -14 0 -5 -30 -11 -67 -15 -38 -3 -75 -10 -83 -14 -21 -11
-287 -13 -294 -2 -3 4 -42 12 -86 15 -44 4 -80 11 -80 16 0 5 -20 12 -45 16
-25 3 -45 10 -45 15 0 5 -11 9 -25 9 -14 0 -25 5 -25 10 0 6 -5 10 -11 10 -12
0 -99 40 -109 50 -3 3 -21 14 -40 24 -19 11 -41 26 -48 33 -7 7 -20 13 -28 13
-8 0 -14 5 -14 10 0 6 -11 15 -25 20 -14 5 -25 17 -25 25 0 9 -8 19 -17 22
-24 9 -103 84 -103 97 0 6 -15 24 -34 41 -18 16 -38 40 -45 53 l-12 22 105 0
105 0 44 -42 c76 -73 151 -131 207 -162 19 -11 41 -26 48 -33 7 -7 22 -13 33
-13 11 0 28 -4 39 -10 11 -5 28 -14 39 -19 10 -5 36 -13 57 -17 22 -3 45 -12
53 -18 19 -15 433 -15 452 0 8 6 31 15 53 18 21 4 46 11 55 16 9 4 30 13 46
20 57 23 115 55 115 62 0 5 9 8 20 8 10 0 30 11 44 25 14 14 29 25 33 25 4 0
38 31 74 68 l67 69 93 6 c51 4 98 12 103 17 14 14 36 12 36 -3z m-380 -25 c0
-10 -33 -36 -50 -40 -8 -2 -27 -16 -44 -33 -16 -16 -35 -29 -42 -29 -7 0 -14
-3 -16 -7 -5 -14 -133 -73 -156 -73 -11 0 -23 -4 -26 -9 -3 -5 -52 -12 -108
-16 -57 -4 -112 -11 -123 -15 -11 -4 -33 -4 -49 1 -15 5 -73 11 -127 15 -54 4
-99 10 -99 14 0 4 -20 11 -45 14 -25 4 -45 10 -45 14 0 8 -8 12 -86 52 -27 13
-55 30 -62 37 -7 7 -18 13 -23 13 -10 0 -69 56 -69 65 0 3 263 5 585 5 322 0
585 -3 585 -8z"/>
<path d="M1518 803 c-25 -6 -34 -49 -15 -68 11 -11 37 -15 97 -15 79 0 81 -1
75 -22 -4 -11 -18 -31 -31 -43 -13 -12 -24 -27 -24 -32 0 -5 -11 -20 -25 -33
-14 -13 -25 -28 -25 -34 0 -6 -12 -22 -26 -35 -30 -29 -64 -92 -64 -120 0 -33
32 -41 175 -41 143 0 175 8 175 41 0 40 -23 49 -119 49 -50 0 -91 2 -91 5 0 3
11 16 24 28 13 12 26 32 30 45 4 12 12 22 17 22 5 0 9 7 9 15 0 7 6 18 13 22
8 4 22 22 33 38 20 33 24 38 54 74 33 40 37 72 10 93 -19 15 -40 18 -149 17
-69 -1 -134 -3 -143 -6z"/>
<path d="M1957 795 c-16 -15 -17 -39 -15 -217 3 -219 6 -228 61 -214 24 6 27
11 27 54 0 76 8 92 43 92 34 0 97 20 97 31 0 4 11 10 25 13 14 4 25 13 25 20
0 8 5 16 12 18 15 5 17 126 2 136 -6 4 -13 15 -17 25 -4 9 -15 20 -24 24 -10
4 -21 11 -24 16 -4 5 -49 12 -101 15 -80 4 -97 2 -111 -13z"/>
</g>
</svg>
